<?xml version="1.0" encoding="UTF-8" standalone="no"?>
<svg
   xmlns:dc="http://purl.org/dc/elements/1.1/"
   xmlns:cc="http://creativecommons.org/ns#"
   xmlns:rdf="http://www.w3.org/1999/02/22-rdf-syntax-ns#"
   xmlns:svg="http://www.w3.org/2000/svg"
   xmlns="http://www.w3.org/2000/svg"
   xmlns:sodipodi="http://sodipodi.sourceforge.net/DTD/sodipodi-0.dtd"
   xmlns:inkscape="http://www.inkscape.org/namespaces/inkscape"
   width="40"
   height="40"
   viewBox="0 0 40 40"
   version="1.1"
   id="svg9"
   sodipodi:docname="pluginIcon.svg"
   inkscape:version="0.92.3 (2405546, 2018-03-11)">
  <metadata
     id="metadata15">
    <rdf:RDF>
      <cc:Work
         rdf:about="">
        <dc:format>image/svg+xml</dc:format>
        <dc:type
           rdf:resource="http://purl.org/dc/dcmitype/StillImage" />
      </cc:Work>
    </rdf:RDF>
  </metadata>
  <defs
     id="defs13" />
  <sodipodi:namedview
     pagecolor="#ffffff"
     bordercolor="#666666"
     borderopacity="1"
     objecttolerance="10"
     gridtolerance="10"
     guidetolerance="10"
     inkscape:pageopacity="0"
     inkscape:pageshadow="2"
     inkscape:window-width="3840"
     inkscape:window-height="2035"
     id="namedview11"
     showgrid="false"
     inkscape:zoom="33.37544"
     inkscape:cx="14.05953"
     inkscape:cy="16.790193"
     inkscape:window-x="-13"
     inkscape:window-y="-13"
     inkscape:window-maximized="1"
     inkscape:current-layer="svg9" />
  <g
     id="HeapViewerPluginIcon"
     transform="matrix(1.2468997,0,0,1.2468997,-4.933383,-4.9342478)"
     style="fill:none;fill-rule:evenodd;stroke:none;stroke-width:1"
     inkscape:export-xdpi="179.10001"
     inkscape:export-ydpi="179.10001">
    <path
       id="Fill-2"
       d="m 20,13 c -1.103,0 -2,-0.897 -2,-2 0,-1.103 0.897,-2 2,-2 1.103,0 2,0.897 2,2 0,1.103 -0.897,2 -2,2 m 0,-6 c -2.209,0 -4,1.791 -4,4 0,2.209 1.791,4 4,4 2.209,0 4,-1.791 4,-4 0,-2.209 -1.791,-4 -4,-4"
       inkscape:connector-curvature="0"
       style="fill:#f26522" />
    <path
       id="Fill-4"
       d="m 14,22 c -1.103,0 -2,-0.897 -2,-2 0,-1.103 0.897,-2 2,-2 1.103,0 2,0.897 2,2 0,1.103 -0.897,2 -2,2 m 3.367,-5.247 0.751,-1.127 C 17.49,15.369 16.924,14.992 16.453,14.518 l -0.748,1.122 c -0.223,0.335 -0.626,0.503 -1.021,0.427 C 14.462,16.024 14.234,16 14,16 c -2.209,0 -4,1.791 -4,4 0,2.209 1.791,4 4,4 2.209,0 4,-1.791 4,-4 0,-0.794 -0.238,-1.528 -0.64,-2.147 -0.217,-0.335 -0.215,-0.768 0.007,-1.1"
       inkscape:connector-curvature="0"
       style="fill:#f98b9e" />
    <path
       id="Fill-6"
       d="m 26,22 c -1.103,0 -2,-0.897 -2,-2 0,-1.103 0.897,-2 2,-2 1.103,0 2,0.897 2,2 0,1.103 -0.897,2 -2,2 m 0,-6 c -0.234,0 -0.462,0.024 -0.684,0.067 -0.395,0.076 -0.798,-0.092 -1.021,-0.427 l -0.748,-1.122 c -0.471,0.474 -1.037,0.851 -1.665,1.108 l 0.751,1.127 c 0.222,0.332 0.224,0.765 0.007,1.1 C 22.238,18.472 22,19.206 22,20 c 0,2.209 1.791,4 4,4 2.209,0 4,-1.791 4,-4 0,-2.209 -1.791,-4 -4,-4"
       inkscape:connector-curvature="0"
       style="fill:#b99bf8" />
    <path
       id="Fill-8"
       d="m 8,31 c -1.103,0 -2,-0.897 -2,-2 0,-1.103 0.897,-2 2,-2 1.103,0 2,0.897 2,2 0,1.103 -0.897,2 -2,2 m 3.367,-5.247 0.751,-1.127 C 11.49,24.369 10.924,23.992 10.453,23.518 L 9.705,24.64 C 9.482,24.975 9.079,25.143 8.684,25.067 8.462,25.024 8.234,25 8,25 c -2.209,0 -4,1.791 -4,4 0,2.209 1.791,4 4,4 2.209,0 4,-1.791 4,-4 0,-0.794 -0.238,-1.528 -0.64,-2.147 -0.217,-0.335 -0.215,-0.768 0.007,-1.1"
       inkscape:connector-curvature="0"
       style="fill:#62b543" />
    <path
       id="Fill-10"
       d="m 20,31 c -1.103,0 -2,-0.897 -2,-2 0,-1.103 0.897,-2 2,-2 1.103,0 2,0.897 2,2 0,1.103 -0.897,2 -2,2 m 0,-6 c -0.234,0 -0.462,0.024 -0.684,0.067 -0.395,0.076 -0.798,-0.092 -1.021,-0.427 l -0.748,-1.122 c -0.471,0.474 -1.037,0.851 -1.665,1.108 l 0.751,1.127 c 0.222,0.332 0.224,0.765 0.007,1.1 C 16.238,27.472 16,28.206 16,29 c 0,2.209 1.791,4 4,4 2.209,0 4,-1.791 4,-4 0,-2.209 -1.791,-4 -4,-4"
       inkscape:connector-curvature="0"
       style="fill:#40b6e0" />
    <path
       id="Fill-12"
       d="m 32,31 c -1.103,0 -2,-0.897 -2,-2 0,-1.103 0.897,-2 2,-2 1.103,0 2,0.897 2,2 0,1.103 -0.897,2 -2,2 m 0,-6 c -0.234,0 -0.462,0.024 -0.684,0.067 -0.395,0.076 -0.798,-0.092 -1.021,-0.427 l -0.748,-1.122 c -0.471,0.474 -1.037,0.851 -1.665,1.108 l 0.751,1.127 c 0.222,0.332 0.224,0.765 0.007,1.1 C 28.238,27.472 28,28.206 28,29 c 0,2.209 1.791,4 4,4 2.209,0 4,-1.791 4,-4 0,-2.209 -1.791,-4 -4,-4"
       inkscape:connector-curvature="0"
       style="fill:#f4af3d" />
  </g>
</svg>
